<mxfile host="Electron" modified="2023-04-18T12:30:33.727Z" agent="Mozilla/5.0 (X11; Linux x86_64) AppleWebKit/537.36 (KHTML, like Gecko) draw.io/21.1.2 Chrome/106.0.5249.199 Electron/21.4.3 Safari/537.36" etag="Mz8ZmPHEjvVP-m6IGIOi" version="21.1.2" type="device">
  <diagram name="Page-1" id="To25hciYay-ndi6ervvT">
    <mxGraphModel dx="478" dy="283" grid="1" gridSize="10" guides="1" tooltips="1" connect="1" arrows="1" fold="1" page="1" pageScale="1" pageWidth="1169" pageHeight="827" math="0" shadow="0">
      <root>
        <mxCell id="0" />
        <mxCell id="1" parent="0" />
        <mxCell id="aQaq3pTGxoAsBUJqCeZC-16" value="" style="ellipse;whiteSpace=wrap;html=1;fillColor=none;strokeWidth=2;strokeColor=#808080;opacity=60;" parent="1" vertex="1">
          <mxGeometry x="390" y="115" width="70" height="70" as="geometry" />
        </mxCell>
        <mxCell id="aQaq3pTGxoAsBUJqCeZC-17" value="" style="ellipse;whiteSpace=wrap;html=1;fillColor=none;strokeWidth=2;strokeColor=#808080;opacity=60;" parent="1" vertex="1">
          <mxGeometry x="210" y="115" width="70" height="70" as="geometry" />
        </mxCell>
        <mxCell id="aQaq3pTGxoAsBUJqCeZC-18" value="" style="ellipse;whiteSpace=wrap;html=1;fillColor=none;strokeWidth=2;strokeColor=#808080;opacity=60;" parent="1" vertex="1">
          <mxGeometry x="20" y="115" width="70" height="70" as="geometry" />
        </mxCell>
        <mxCell id="aQaq3pTGxoAsBUJqCeZC-3" value="" style="verticalLabelPosition=bottom;verticalAlign=top;html=1;shape=mxgraph.basic.arc;startAngle=0.6176595964053757;endAngle=0.2697917120802828;strokeColor=#67AB9F;" parent="1" vertex="1">
          <mxGeometry x="45" y="24" width="20" height="10" as="geometry" />
        </mxCell>
        <mxCell id="aQaq3pTGxoAsBUJqCeZC-4" value="" style="edgeStyle=none;orthogonalLoop=1;jettySize=auto;html=1;rounded=0;endArrow=classicThin;endFill=1;strokeColor=#67AB9F;" parent="1" edge="1">
          <mxGeometry width="100" relative="1" as="geometry">
            <mxPoint x="51" y="33" as="sourcePoint" />
            <mxPoint x="55" y="34" as="targetPoint" />
            <Array as="points" />
          </mxGeometry>
        </mxCell>
        <mxCell id="aQaq3pTGxoAsBUJqCeZC-5" value="ψ&lt;sub&gt;1&lt;/sub&gt;" style="edgeLabel;html=1;align=center;verticalAlign=middle;resizable=0;points=[];fontColor=#67AB9F;labelBackgroundColor=none;fontFamily=Georgia;" parent="aQaq3pTGxoAsBUJqCeZC-4" vertex="1" connectable="0">
          <mxGeometry x="-1" y="1" relative="1" as="geometry">
            <mxPoint x="4" y="-15" as="offset" />
          </mxGeometry>
        </mxCell>
        <mxCell id="aQaq3pTGxoAsBUJqCeZC-6" value="" style="shape=waypoint;sketch=0;size=6;pointerEvents=1;points=[];fillColor=none;resizable=0;rotatable=0;perimeter=centerPerimeter;snapToPoint=1;strokeWidth=0.15;" parent="1" vertex="1">
          <mxGeometry x="185" y="40" width="20" height="20" as="geometry" />
        </mxCell>
        <mxCell id="aQaq3pTGxoAsBUJqCeZC-7" value="" style="shape=waypoint;sketch=0;size=6;pointerEvents=1;points=[];fillColor=none;resizable=0;rotatable=0;perimeter=centerPerimeter;snapToPoint=1;strokeWidth=0.15;" parent="1" vertex="1">
          <mxGeometry x="325" y="80" width="20" height="20" as="geometry" />
        </mxCell>
        <mxCell id="aQaq3pTGxoAsBUJqCeZC-8" value="" style="endArrow=none;html=1;rounded=0;exitX=0.989;exitY=0.313;exitDx=0;exitDy=0;exitPerimeter=0;strokeWidth=2;entryX=0.309;entryY=0.971;entryDx=0;entryDy=0;entryPerimeter=0;" parent="1" source="aQaq3pTGxoAsBUJqCeZC-7" target="aQaq3pTGxoAsBUJqCeZC-6" edge="1">
          <mxGeometry width="50" height="50" relative="1" as="geometry">
            <mxPoint x="355" y="90" as="sourcePoint" />
            <mxPoint x="195" y="50" as="targetPoint" />
          </mxGeometry>
        </mxCell>
        <mxCell id="aQaq3pTGxoAsBUJqCeZC-9" value="" style="endArrow=none;html=1;rounded=0;edgeStyle=elbowEdgeStyle;elbow=vertical;exitX=1.014;exitY=0.493;exitDx=0;exitDy=0;exitPerimeter=0;entryX=0.37;entryY=0.503;entryDx=0;entryDy=0;entryPerimeter=0;strokeWidth=2;" parent="1" source="aQaq3pTGxoAsBUJqCeZC-12" target="aQaq3pTGxoAsBUJqCeZC-7" edge="1">
          <mxGeometry width="50" height="50" relative="1" as="geometry">
            <mxPoint x="255" y="90.00999999999999" as="sourcePoint" />
            <mxPoint x="330" y="89.93" as="targetPoint" />
          </mxGeometry>
        </mxCell>
        <mxCell id="aQaq3pTGxoAsBUJqCeZC-10" value="" style="shape=waypoint;sketch=0;size=6;pointerEvents=1;points=[];fillColor=none;resizable=0;rotatable=0;perimeter=centerPerimeter;snapToPoint=1;strokeWidth=0.15;" parent="1" vertex="1">
          <mxGeometry x="415" y="80" width="20" height="20" as="geometry" />
        </mxCell>
        <mxCell id="aQaq3pTGxoAsBUJqCeZC-11" value="" style="endArrow=none;html=1;rounded=0;edgeStyle=elbowEdgeStyle;elbow=vertical;exitX=1.043;exitY=0.532;exitDx=0;exitDy=0;exitPerimeter=0;entryX=0.5;entryY=0.5;entryDx=0;entryDy=0;entryPerimeter=0;strokeWidth=2;" parent="1" source="aQaq3pTGxoAsBUJqCeZC-7" target="aQaq3pTGxoAsBUJqCeZC-10" edge="1">
          <mxGeometry width="50" height="50" relative="1" as="geometry">
            <mxPoint x="345" y="89.92000000000002" as="sourcePoint" />
            <mxPoint x="415" y="90" as="targetPoint" />
          </mxGeometry>
        </mxCell>
        <mxCell id="aQaq3pTGxoAsBUJqCeZC-12" value="" style="shape=waypoint;sketch=0;size=6;pointerEvents=1;points=[];fillColor=none;resizable=0;rotatable=0;perimeter=centerPerimeter;snapToPoint=1;strokeWidth=0.15;" parent="1" vertex="1">
          <mxGeometry x="235" y="80" width="20" height="20" as="geometry" />
        </mxCell>
        <mxCell id="aQaq3pTGxoAsBUJqCeZC-13" style="edgeStyle=orthogonalEdgeStyle;rounded=0;orthogonalLoop=1;jettySize=auto;html=1;endArrow=none;endFill=0;dashed=1;strokeColor=#4F827A;" parent="1" source="aQaq3pTGxoAsBUJqCeZC-14" edge="1">
          <mxGeometry relative="1" as="geometry">
            <mxPoint x="55" y="20" as="targetPoint" />
          </mxGeometry>
        </mxCell>
        <mxCell id="aQaq3pTGxoAsBUJqCeZC-14" value="" style="shape=waypoint;sketch=0;size=6;pointerEvents=1;points=[];fillColor=none;resizable=0;rotatable=0;perimeter=centerPerimeter;snapToPoint=1;strokeWidth=0.15;" parent="1" vertex="1">
          <mxGeometry x="45" y="40" width="20" height="20" as="geometry" />
        </mxCell>
        <mxCell id="aQaq3pTGxoAsBUJqCeZC-15" value="" style="endArrow=none;html=1;rounded=0;edgeStyle=elbowEdgeStyle;elbow=vertical;exitX=0.992;exitY=0.465;exitDx=0;exitDy=0;exitPerimeter=0;entryX=0.071;entryY=0.481;entryDx=0;entryDy=0;entryPerimeter=0;strokeWidth=2;" parent="1" source="aQaq3pTGxoAsBUJqCeZC-6" target="aQaq3pTGxoAsBUJqCeZC-14" edge="1">
          <mxGeometry width="50" height="50" relative="1" as="geometry">
            <mxPoint x="205" y="50" as="sourcePoint" />
            <mxPoint x="355" y="50" as="targetPoint" />
          </mxGeometry>
        </mxCell>
        <mxCell id="aQaq3pTGxoAsBUJqCeZC-19" value="" style="shape=waypoint;sketch=0;size=6;pointerEvents=1;points=[];fillColor=none;resizable=0;rotatable=0;perimeter=centerPerimeter;snapToPoint=1;strokeWidth=0.15;" parent="1" vertex="1">
          <mxGeometry x="235" y="140" width="20" height="20" as="geometry" />
        </mxCell>
        <mxCell id="aQaq3pTGxoAsBUJqCeZC-20" value="" style="endArrow=none;html=1;rounded=0;entryX=0.455;entryY=0.962;entryDx=0;entryDy=0;entryPerimeter=0;exitX=0.652;exitY=0.025;exitDx=0;exitDy=0;exitPerimeter=0;strokeWidth=2;" parent="1" source="aQaq3pTGxoAsBUJqCeZC-19" target="aQaq3pTGxoAsBUJqCeZC-12" edge="1">
          <mxGeometry width="50" height="50" relative="1" as="geometry">
            <mxPoint x="245" y="150" as="sourcePoint" />
            <mxPoint x="305" y="70" as="targetPoint" />
          </mxGeometry>
        </mxCell>
        <mxCell id="aQaq3pTGxoAsBUJqCeZC-21" value="" style="shape=waypoint;sketch=0;size=6;pointerEvents=1;points=[];fillColor=none;resizable=0;rotatable=0;perimeter=centerPerimeter;snapToPoint=1;strokeWidth=0.15;" parent="1" vertex="1">
          <mxGeometry x="415" y="140" width="20" height="20" as="geometry" />
        </mxCell>
        <mxCell id="aQaq3pTGxoAsBUJqCeZC-22" value="" style="endArrow=none;html=1;rounded=0;edgeStyle=elbowEdgeStyle;elbow=vertical;exitX=0.528;exitY=1.001;exitDx=0;exitDy=0;exitPerimeter=0;entryX=0.602;entryY=-0.012;entryDx=0;entryDy=0;entryPerimeter=0;strokeWidth=2;" parent="1" source="aQaq3pTGxoAsBUJqCeZC-10" target="aQaq3pTGxoAsBUJqCeZC-21" edge="1">
          <mxGeometry width="50" height="50" relative="1" as="geometry">
            <mxPoint x="425" y="110" as="sourcePoint" />
            <mxPoint x="425" y="150" as="targetPoint" />
            <Array as="points">
              <mxPoint x="425" y="90" />
            </Array>
          </mxGeometry>
        </mxCell>
        <mxCell id="aQaq3pTGxoAsBUJqCeZC-23" value="" style="shape=waypoint;sketch=0;size=6;pointerEvents=1;points=[];fillColor=none;resizable=0;rotatable=0;perimeter=centerPerimeter;snapToPoint=1;strokeWidth=0.15;" parent="1" vertex="1">
          <mxGeometry x="45" y="140" width="20" height="20" as="geometry" />
        </mxCell>
        <mxCell id="aQaq3pTGxoAsBUJqCeZC-24" value="" style="endArrow=none;html=1;rounded=0;edgeStyle=elbowEdgeStyle;elbow=vertical;exitX=0.49;exitY=0.997;exitDx=0;exitDy=0;exitPerimeter=0;entryX=0.578;entryY=-0.024;entryDx=0;entryDy=0;entryPerimeter=0;strokeWidth=2;" parent="1" source="aQaq3pTGxoAsBUJqCeZC-14" target="aQaq3pTGxoAsBUJqCeZC-23" edge="1">
          <mxGeometry width="50" height="50" relative="1" as="geometry">
            <mxPoint x="54.91999999999996" y="64" as="sourcePoint" />
            <mxPoint x="55" y="150" as="targetPoint" />
          </mxGeometry>
        </mxCell>
        <mxCell id="aQaq3pTGxoAsBUJqCeZC-25" value="" style="group;rotation=5;" parent="1" vertex="1" connectable="0">
          <mxGeometry x="175" y="40" width="40" height="40" as="geometry" />
        </mxCell>
        <mxCell id="aQaq3pTGxoAsBUJqCeZC-26" value="" style="verticalLabelPosition=bottom;verticalAlign=top;html=1;shape=mxgraph.basic.arc;startAngle=0.8901120334194598;endAngle=0.1;strokeColor=#A680B8;rotation=5;" parent="aQaq3pTGxoAsBUJqCeZC-25" vertex="1">
          <mxGeometry width="40" height="40" as="geometry" />
        </mxCell>
        <mxCell id="aQaq3pTGxoAsBUJqCeZC-27" value="" style="edgeStyle=none;orthogonalLoop=1;jettySize=auto;html=1;rounded=0;strokeColor=#A680B8;endArrow=classicThin;endFill=1;" parent="aQaq3pTGxoAsBUJqCeZC-25" edge="1">
          <mxGeometry width="100" relative="1" as="geometry">
            <mxPoint x="8" y="4" as="sourcePoint" />
            <mxPoint x="5" y="6" as="targetPoint" />
            <Array as="points" />
          </mxGeometry>
        </mxCell>
        <mxCell id="aQaq3pTGxoAsBUJqCeZC-28" value="ρ" style="edgeLabel;html=1;align=center;verticalAlign=middle;resizable=0;points=[];labelBackgroundColor=none;fontColor=#A680B8;fontFamily=Georgia;" parent="aQaq3pTGxoAsBUJqCeZC-27" vertex="1" connectable="0">
          <mxGeometry x="-1" y="-2" relative="1" as="geometry">
            <mxPoint x="13" y="-12" as="offset" />
          </mxGeometry>
        </mxCell>
        <mxCell id="aQaq3pTGxoAsBUJqCeZC-29" value="" style="group;rotation=19.5;" parent="1" vertex="1" connectable="0">
          <mxGeometry x="315" y="80" width="40" height="40" as="geometry" />
        </mxCell>
        <mxCell id="aQaq3pTGxoAsBUJqCeZC-30" value="" style="verticalLabelPosition=bottom;verticalAlign=top;html=1;shape=mxgraph.basic.arc;startAngle=0.8901120334194598;endAngle=0.06085751341161643;strokeColor=#FF8000;rotation=19.5;" parent="aQaq3pTGxoAsBUJqCeZC-29" vertex="1">
          <mxGeometry width="40" height="40" as="geometry" />
        </mxCell>
        <mxCell id="aQaq3pTGxoAsBUJqCeZC-31" value="" style="edgeStyle=none;orthogonalLoop=1;jettySize=auto;html=1;rounded=0;strokeColor=#FF8000;endArrow=classicThin;endFill=1;" parent="aQaq3pTGxoAsBUJqCeZC-29" edge="1">
          <mxGeometry width="100" relative="1" as="geometry">
            <mxPoint x="12" y="2" as="sourcePoint" />
            <mxPoint x="8" y="4" as="targetPoint" />
            <Array as="points" />
          </mxGeometry>
        </mxCell>
        <mxCell id="aQaq3pTGxoAsBUJqCeZC-32" value="β&lt;sub style=&quot;border-color: var(--border-color);&quot;&gt;1&lt;/sub&gt;" style="edgeLabel;html=1;align=center;verticalAlign=middle;resizable=0;points=[];labelBackgroundColor=none;fontColor=#FF8000;fontFamily=Georgia;" parent="aQaq3pTGxoAsBUJqCeZC-31" vertex="1" connectable="0">
          <mxGeometry x="-1" y="2" relative="1" as="geometry">
            <mxPoint x="10" y="-10" as="offset" />
          </mxGeometry>
        </mxCell>
        <mxCell id="aQaq3pTGxoAsBUJqCeZC-33" value="" style="group;rotation=5;" parent="1" vertex="1" connectable="0">
          <mxGeometry x="225" y="134" width="40" height="40" as="geometry" />
        </mxCell>
        <mxCell id="aQaq3pTGxoAsBUJqCeZC-34" value="" style="verticalLabelPosition=bottom;verticalAlign=top;html=1;shape=mxgraph.basic.arc;startAngle=0.8901120334194598;endAngle=0.1;strokeColor=#808080;rotation=5;" parent="aQaq3pTGxoAsBUJqCeZC-33" vertex="1">
          <mxGeometry width="40" height="40" as="geometry" />
        </mxCell>
        <mxCell id="aQaq3pTGxoAsBUJqCeZC-35" value="" style="edgeStyle=none;orthogonalLoop=1;jettySize=auto;html=1;rounded=0;strokeColor=#808080;endArrow=classicThin;endFill=1;" parent="aQaq3pTGxoAsBUJqCeZC-33" edge="1">
          <mxGeometry width="100" relative="1" as="geometry">
            <mxPoint x="8" y="4" as="sourcePoint" />
            <mxPoint x="5" y="6" as="targetPoint" />
            <Array as="points" />
          </mxGeometry>
        </mxCell>
        <mxCell id="aQaq3pTGxoAsBUJqCeZC-36" value="θ&lt;sub&gt;3&lt;/sub&gt;" style="edgeLabel;html=1;align=center;verticalAlign=middle;resizable=0;points=[];labelBackgroundColor=none;fontColor=#808080;fontFamily=Georgia;" parent="aQaq3pTGxoAsBUJqCeZC-35" vertex="1" connectable="0">
          <mxGeometry x="-1" y="-2" relative="1" as="geometry">
            <mxPoint x="-5" y="8" as="offset" />
          </mxGeometry>
        </mxCell>
        <mxCell id="aQaq3pTGxoAsBUJqCeZC-37" value="" style="group;rotation=5;" parent="1" vertex="1" connectable="0">
          <mxGeometry x="405" y="134" width="40" height="40" as="geometry" />
        </mxCell>
        <mxCell id="aQaq3pTGxoAsBUJqCeZC-38" value="" style="verticalLabelPosition=bottom;verticalAlign=top;html=1;shape=mxgraph.basic.arc;startAngle=0.8901120334194598;endAngle=0.1;strokeColor=#808080;rotation=5;" parent="aQaq3pTGxoAsBUJqCeZC-37" vertex="1">
          <mxGeometry width="40" height="40" as="geometry" />
        </mxCell>
        <mxCell id="aQaq3pTGxoAsBUJqCeZC-39" value="" style="edgeStyle=none;orthogonalLoop=1;jettySize=auto;html=1;rounded=0;strokeColor=#808080;endArrow=classicThin;endFill=1;" parent="aQaq3pTGxoAsBUJqCeZC-37" edge="1">
          <mxGeometry width="100" relative="1" as="geometry">
            <mxPoint x="8" y="4" as="sourcePoint" />
            <mxPoint x="5" y="6" as="targetPoint" />
            <Array as="points" />
          </mxGeometry>
        </mxCell>
        <mxCell id="aQaq3pTGxoAsBUJqCeZC-40" value="θ&lt;sub&gt;5&lt;/sub&gt;" style="edgeLabel;html=1;align=center;verticalAlign=middle;resizable=0;points=[];labelBackgroundColor=none;fontColor=#808080;fontFamily=Georgia;" parent="aQaq3pTGxoAsBUJqCeZC-39" vertex="1" connectable="0">
          <mxGeometry x="-1" y="-2" relative="1" as="geometry">
            <mxPoint x="-5" y="8" as="offset" />
          </mxGeometry>
        </mxCell>
        <mxCell id="aQaq3pTGxoAsBUJqCeZC-41" value="" style="group;rotation=5;" parent="1" vertex="1" connectable="0">
          <mxGeometry x="35" y="134" width="40" height="40" as="geometry" />
        </mxCell>
        <mxCell id="aQaq3pTGxoAsBUJqCeZC-42" value="" style="verticalLabelPosition=bottom;verticalAlign=top;html=1;shape=mxgraph.basic.arc;startAngle=0.8901120334194598;endAngle=0.1;strokeColor=#808080;rotation=5;" parent="aQaq3pTGxoAsBUJqCeZC-41" vertex="1">
          <mxGeometry width="40" height="40" as="geometry" />
        </mxCell>
        <mxCell id="aQaq3pTGxoAsBUJqCeZC-43" value="" style="edgeStyle=none;orthogonalLoop=1;jettySize=auto;html=1;rounded=0;strokeColor=#808080;endArrow=classicThin;endFill=1;" parent="aQaq3pTGxoAsBUJqCeZC-41" edge="1">
          <mxGeometry width="100" relative="1" as="geometry">
            <mxPoint x="8" y="4" as="sourcePoint" />
            <mxPoint x="5" y="6" as="targetPoint" />
            <Array as="points" />
          </mxGeometry>
        </mxCell>
        <mxCell id="aQaq3pTGxoAsBUJqCeZC-44" value="θ&lt;sub&gt;1&lt;/sub&gt;" style="edgeLabel;html=1;align=center;verticalAlign=middle;resizable=0;points=[];labelBackgroundColor=none;fontColor=#808080;fontFamily=Georgia;" parent="aQaq3pTGxoAsBUJqCeZC-43" vertex="1" connectable="0">
          <mxGeometry x="-1" y="-2" relative="1" as="geometry">
            <mxPoint x="-5" y="8" as="offset" />
          </mxGeometry>
        </mxCell>
        <mxCell id="VKbI9QG4reIAjl2ffA3P-2" value="" style="endArrow=none;dashed=1;html=1;rounded=0;entryX=0.531;entryY=0.956;entryDx=0;entryDy=0;entryPerimeter=0;edgeStyle=elbowEdgeStyle;exitX=0.539;exitY=0.031;exitDx=0;exitDy=0;exitPerimeter=0;" parent="1" source="VKbI9QG4reIAjl2ffA3P-3" target="aQaq3pTGxoAsBUJqCeZC-6" edge="1">
          <mxGeometry width="50" height="50" relative="1" as="geometry">
            <mxPoint x="195" y="90" as="sourcePoint" />
            <mxPoint x="200" y="60" as="targetPoint" />
            <Array as="points">
              <mxPoint x="195" y="70" />
            </Array>
          </mxGeometry>
        </mxCell>
        <mxCell id="VKbI9QG4reIAjl2ffA3P-4" value="k&lt;sub&gt;1&lt;/sub&gt;" style="edgeLabel;html=1;align=center;verticalAlign=middle;resizable=0;points=[];labelBackgroundColor=none;fontFamily=Georgia;" parent="VKbI9QG4reIAjl2ffA3P-2" vertex="1" connectable="0">
          <mxGeometry x="0.227" y="1" relative="1" as="geometry">
            <mxPoint x="-6" as="offset" />
          </mxGeometry>
        </mxCell>
        <mxCell id="VKbI9QG4reIAjl2ffA3P-3" value="" style="shape=waypoint;sketch=0;size=6;pointerEvents=1;points=[];fillColor=none;resizable=0;rotatable=0;perimeter=centerPerimeter;snapToPoint=1;strokeWidth=0.15;" parent="1" vertex="1">
          <mxGeometry x="185" y="80" width="20" height="20" as="geometry" />
        </mxCell>
        <mxCell id="VKbI9QG4reIAjl2ffA3P-5" value="R" style="text;html=1;align=center;verticalAlign=middle;resizable=0;points=[];autosize=1;strokeColor=none;fillColor=none;fontSize=11;fontFamily=Georgia;" parent="1" vertex="1">
          <mxGeometry x="180" y="85" width="30" height="30" as="geometry" />
        </mxCell>
        <mxCell id="mZe4KIe-W1pnUVbQiZ9L-2" value="" style="endArrow=none;html=1;rounded=0;entryX=1.01;entryY=0.513;entryDx=0;entryDy=0;entryPerimeter=0;exitX=0.889;exitY=0.834;exitDx=0;exitDy=0;exitPerimeter=0;" edge="1" parent="1" source="aQaq3pTGxoAsBUJqCeZC-16" target="aQaq3pTGxoAsBUJqCeZC-21">
          <mxGeometry width="50" height="50" relative="1" as="geometry">
            <mxPoint x="460" y="210" as="sourcePoint" />
            <mxPoint x="510" y="160" as="targetPoint" />
          </mxGeometry>
        </mxCell>
        <mxCell id="mZe4KIe-W1pnUVbQiZ9L-3" value="k&lt;sub&gt;&lt;font style=&quot;font-size: 8px;&quot;&gt;10&lt;/font&gt;&lt;/sub&gt;" style="edgeLabel;html=1;align=center;verticalAlign=middle;resizable=0;points=[];labelBackgroundColor=none;fontFamily=Georgia;" vertex="1" connectable="0" parent="mZe4KIe-W1pnUVbQiZ9L-2">
          <mxGeometry x="-0.0891" y="-1" relative="1" as="geometry">
            <mxPoint x="-8" y="3" as="offset" />
          </mxGeometry>
        </mxCell>
      </root>
    </mxGraphModel>
  </diagram>
</mxfile>
